<svg xmlns="http://www.w3.org/2000/svg" viewBox="-130 -335 260 360" role="img" aria-label="噜妹自制分层二维模型 front"><defs><radialGradient id="lumei-front-farLeg-0" gradientUnits="userSpaceOnUse" cx="0" cy="0" r="1" fx="-0.3" fy="-0.45" gradientTransform="translate(1 0) scale(25 23)"><stop offset="0" stop-color="#ffe565"/><stop offset="0.3333333333333333" stop-color="#ffd32b"/><stop offset="0.6666666666666666" stop-color="#efb00f"/><stop offset="1" stop-color="#cb8109"/></radialGradient><radialGradient id="lumei-front-nearLeg-0" gradientUnits="userSpaceOnUse" cx="0" cy="0" r="1" fx="-0.3" fy="-0.45" gradientTransform="translate(1 0) scale(25 23)"><stop offset="0" stop-color="#ffe565"/><stop offset="0.3333333333333333" stop-color="#ffd32b"/><stop offset="0.6666666666666666" stop-color="#efb00f"/><stop offset="1" stop-color="#cb8109"/></radialGradient><radialGradient id="lumei-front-body-0" gradientUnits="userSpaceOnUse" cx="0" cy="0" r="1" fx="-0.3" fy="0.08" gradientTransform="translate(0 4) scale(69 67)"><stop offset="0" stop-color="#ffe65d"/><stop offset="0.3333333333333333" stop-color="#ffda22"/><stop offset="0.6666666666666666" stop-color="#f4be0c"/><stop offset="1" stop-color="#d89406"/></radialGradient><radialGradient id="lumei-front-clothes-0" gradientUnits="userSpaceOnUse" cx="0" cy="0" r="1" fx="-0.3" fy="-0.12" gradientTransform="translate(0 -18) scale(69 53)"><stop offset="0" stop-color="#ffe2df"/><stop offset="0.3333333333333333" stop-color="#f6bec9"/><stop offset="0.6666666666666666" stop-color="#eaa3b6"/><stop offset="1" stop-color="#c98097"/></radialGradient><radialGradient id="lumei-front-farArm-0" gradientUnits="userSpaceOnUse" cx="0" cy="0" r="1" fx="-0.3" fy="-0.45" gradientTransform="translate(3 30) scale(25 51)"><stop offset="0" stop-color="#ffe25b"/><stop offset="0.3333333333333333" stop-color="#ffd024"/><stop offset="0.6666666666666666" stop-color="#f4b714"/><stop offset="1" stop-color="#d98c07"/></radialGradient><radialGradient id="lumei-front-farArm-2" gradientUnits="userSpaceOnUse" cx="0" cy="0" r="1" fx="-0.3" fy="-0.45" gradientTransform="translate(1 6) scale(26 25)"><stop offset="0" stop-color="#ffdedc"/><stop offset="0.3333333333333333" stop-color="#f3bdc8"/><stop offset="0.6666666666666666" stop-color="#e5a1b5"/><stop offset="1" stop-color="#c97f98"/></radialGradient><radialGradient id="lumei-front-collar-0" gradientUnits="userSpaceOnUse" cx="0" cy="0" r="1" fx="-0.3" fy="-0.45" gradientTransform="translate(0 2) scale(45 19)"><stop offset="0" stop-color="#ffffff"/><stop offset="0.3333333333333333" stop-color="#fffaf1"/><stop offset="0.6666666666666666" stop-color="#ece2d7"/><stop offset="1" stop-color="#ccbbae"/></radialGradient><radialGradient id="lumei-front-bonnetBack-0" gradientUnits="userSpaceOnUse" cx="0" cy="0" r="1" fx="-0.3" fy="-0.45" gradientTransform="translate(0 -53) scale(90 54)"><stop offset="0" stop-color="#ffffff"/><stop offset="0.3333333333333333" stop-color="#fffdf2"/><stop offset="0.6666666666666666" stop-color="#eae4d7"/><stop offset="1" stop-color="#c9c3b8"/></radialGradient><radialGradient id="lumei-front-neckShadow-0" gradientUnits="userSpaceOnUse" cx="0" cy="0" r="1" fx="0" fy="0" gradientTransform="translate(0 0) scale(51 11)"><stop offset="0" stop-color="#88501439"/><stop offset="0.3333333333333333" stop-color="#93591222"/><stop offset="0.6666666666666666" stop-color="#9c63110d"/><stop offset="1" stop-color="#9c631100"/></radialGradient><radialGradient id="lumei-front-head-0" gradientUnits="userSpaceOnUse" cx="0" cy="0" r="1" fx="-0.3" fy="-0.45" gradientTransform="translate(0 -3) scale(86 91)"><stop offset="0" stop-color="#ffe966"/><stop offset="0.3333333333333333" stop-color="#ffd728"/><stop offset="0.6666666666666666" stop-color="#fbc413"/><stop offset="1" stop-color="#d69706"/></radialGradient><radialGradient id="lumei-front-muzzle-0" gradientUnits="userSpaceOnUse" cx="0" cy="0" r="1" fx="-0.12" fy="-0.34" gradientTransform="translate(1 37) scale(100 64)"><stop offset="0" stop-color="#ffbf2b"/><stop offset="0.3333333333333333" stop-color="#ffb11a"/><stop offset="0.6666666666666666" stop-color="#ed9b09e6"/><stop offset="1" stop-color="#fcb71600"/></radialGradient><radialGradient id="lumei-front-eyes-0" gradientUnits="userSpaceOnUse" cx="0" cy="0" r="1" fx="0" fy="0" gradientTransform="translate(-29 0) scale(18 22)"><stop offset="0" stop-color="#88501439"/><stop offset="0.3333333333333333" stop-color="#93591222"/><stop offset="0.6666666666666666" stop-color="#9c63110d"/><stop offset="1" stop-color="#9c631100"/></radialGradient><radialGradient id="lumei-front-eyes-1" gradientUnits="userSpaceOnUse" cx="0" cy="0" r="1" fx="-0.3" fy="-0.45" gradientTransform="translate(-29 0) scale(14 18)"><stop offset="0" stop-color="#ffffff"/><stop offset="0.3333333333333333" stop-color="#ffffff"/><stop offset="0.6666666666666666" stop-color="#eceff0"/><stop offset="1" stop-color="#acb8b8"/></radialGradient><radialGradient id="lumei-front-eyes-2" gradientUnits="userSpaceOnUse" cx="0" cy="0" r="1" fx="0.12" fy="0.5" gradientTransform="translate(-28 1) scale(7.3 10)"><stop offset="0" stop-color="#594537"/><stop offset="0.3333333333333333" stop-color="#40342d"/><stop offset="0.6666666666666666" stop-color="#292627"/><stop offset="1" stop-color="#171d23"/></radialGradient><radialGradient id="lumei-front-eyes-6" gradientUnits="userSpaceOnUse" cx="0" cy="0" r="1" fx="0" fy="0" gradientTransform="translate(29 0) scale(18 22)"><stop offset="0" stop-color="#88501439"/><stop offset="0.3333333333333333" stop-color="#93591222"/><stop offset="0.6666666666666666" stop-color="#9c63110d"/><stop offset="1" stop-color="#9c631100"/></radialGradient><radialGradient id="lumei-front-eyes-7" gradientUnits="userSpaceOnUse" cx="0" cy="0" r="1" fx="-0.3" fy="-0.45" gradientTransform="translate(29 0) scale(14 18)"><stop offset="0" stop-color="#ffffff"/><stop offset="0.3333333333333333" stop-color="#ffffff"/><stop offset="0.6666666666666666" stop-color="#eceff0"/><stop offset="1" stop-color="#acb8b8"/></radialGradient><radialGradient id="lumei-front-eyes-8" gradientUnits="userSpaceOnUse" cx="0" cy="0" r="1" fx="0.12" fy="0.5" gradientTransform="translate(30 1) scale(7.3 10)"><stop offset="0" stop-color="#594537"/><stop offset="0.3333333333333333" stop-color="#40342d"/><stop offset="0.6666666666666666" stop-color="#292627"/><stop offset="1" stop-color="#171d23"/></radialGradient><radialGradient id="lumei-front-mouth-1" gradientUnits="userSpaceOnUse" cx="0" cy="0" r="1" fx="-0.3" fy="-0.45" gradientTransform="translate(0 1) scale(15 15)"><stop offset="0" stop-color="#ffffff"/><stop offset="0.3333333333333333" stop-color="#fffef5"/><stop offset="0.6666666666666666" stop-color="#f5ecd7"/><stop offset="1" stop-color="#d7c6a7"/></radialGradient><radialGradient id="lumei-front-bonnet-0" gradientUnits="userSpaceOnUse" cx="0" cy="0" r="1" fx="-0.3" fy="-0.45" gradientTransform="translate(0 -53) scale(90 54)"><stop offset="0" stop-color="#ffffff"/><stop offset="0.3333333333333333" stop-color="#fffdf2"/><stop offset="0.6666666666666666" stop-color="#eae4d7"/><stop offset="1" stop-color="#c9c3b8"/></radialGradient><radialGradient id="lumei-front-bonnet-2" gradientUnits="userSpaceOnUse" cx="0" cy="0" r="1" fx="-0.3" fy="-0.45" gradientTransform="translate(0 -53) scale(90 54)"><stop offset="0" stop-color="#ffffff"/><stop offset="0.3333333333333333" stop-color="#fffdf2"/><stop offset="0.6666666666666666" stop-color="#eae4d7"/><stop offset="1" stop-color="#c9c3b8"/></radialGradient><radialGradient id="lumei-front-leftEar-0" gradientUnits="userSpaceOnUse" cx="0" cy="0" r="1" fx="-0.3" fy="-0.45" gradientTransform="translate(0 -5) scale(16 19)"><stop offset="0" stop-color="#ffe97b"/><stop offset="0.3333333333333333" stop-color="#ffd532"/><stop offset="0.6666666666666666" stop-color="#ecac10"/><stop offset="1" stop-color="#c9850a"/></radialGradient><radialGradient id="lumei-front-leftEar-1" gradientUnits="userSpaceOnUse" cx="0" cy="0" r="1" fx="0.15" fy="0.5" gradientTransform="translate(0 -5) scale(10 12)"><stop offset="0" stop-color="#f6bc28"/><stop offset="0.3333333333333333" stop-color="#efa517"/><stop offset="0.6666666666666666" stop-color="#d48a0b"/><stop offset="1" stop-color="#b8790b"/></radialGradient><radialGradient id="lumei-front-rightEar-0" gradientUnits="userSpaceOnUse" cx="0" cy="0" r="1" fx="-0.3" fy="-0.45" gradientTransform="translate(0 -5) scale(16 19)"><stop offset="0" stop-color="#ffe97b"/><stop offset="0.3333333333333333" stop-color="#ffd532"/><stop offset="0.6666666666666666" stop-color="#ecac10"/><stop offset="1" stop-color="#c9850a"/></radialGradient><radialGradient id="lumei-front-rightEar-1" gradientUnits="userSpaceOnUse" cx="0" cy="0" r="1" fx="0.15" fy="0.5" gradientTransform="translate(0 -5) scale(10 12)"><stop offset="0" stop-color="#f6bc28"/><stop offset="0.3333333333333333" stop-color="#efa517"/><stop offset="0.6666666666666666" stop-color="#d48a0b"/><stop offset="1" stop-color="#b8790b"/></radialGradient><radialGradient id="lumei-front-orange-0" gradientUnits="userSpaceOnUse" cx="0" cy="0" r="1" fx="0" fy="0" gradientTransform="translate(0 17) scale(29 8)"><stop offset="0" stop-color="#88501439"/><stop offset="0.3333333333333333" stop-color="#93591222"/><stop offset="0.6666666666666666" stop-color="#9c63110d"/><stop offset="1" stop-color="#9c631100"/></radialGradient><radialGradient id="lumei-front-orange-1" gradientUnits="userSpaceOnUse" cx="0" cy="0" r="1" fx="-0.3" fy="-0.45" gradientTransform="translate(0 -3) scale(23 23)"><stop offset="0" stop-color="#ffc044"/><stop offset="0.3333333333333333" stop-color="#ffa21a"/><stop offset="0.6666666666666666" stop-color="#ed830b"/><stop offset="1" stop-color="#c86a0a"/></radialGradient><radialGradient id="lumei-front-orange-2" gradientUnits="userSpaceOnUse" cx="0" cy="0" r="1" fx="-0.3" fy="-0.45" gradientTransform="translate(0 -3) scale(34 9)"><stop offset="0" stop-color="#fff1c5"/><stop offset="0.3333333333333333" stop-color="#ffe4a2"/><stop offset="0.6666666666666666" stop-color="#ecc379"/><stop offset="1" stop-color="#cf9954"/></radialGradient><radialGradient id="lumei-front-orange-3" gradientUnits="userSpaceOnUse" cx="0" cy="0" r="1" fx="-0.3" fy="-0.45" gradientTransform="translate(0 -3) scale(34 9)"><stop offset="0" stop-color="#fff1c5"/><stop offset="0.3333333333333333" stop-color="#ffe4a2"/><stop offset="0.6666666666666666" stop-color="#ecc379"/><stop offset="1" stop-color="#cf9954"/></radialGradient><radialGradient id="lumei-front-orange-4" gradientUnits="userSpaceOnUse" cx="0" cy="0" r="1" fx="-0.3" fy="-0.45" gradientTransform="translate(1 -28) scale(7 14)"><stop offset="0" stop-color="#acd052"/><stop offset="0.3333333333333333" stop-color="#86ae35"/><stop offset="0.6666666666666666" stop-color="#608529"/><stop offset="1" stop-color="#435f25"/></radialGradient><radialGradient id="lumei-front-orange-5" gradientUnits="userSpaceOnUse" cx="0" cy="0" r="1" fx="-0.3" fy="-0.45" gradientTransform="translate(0 -37) scale(26 20)"><stop offset="0" stop-color="#c5db58"/><stop offset="0.3333333333333333" stop-color="#a5c33c"/><stop offset="0.6666666666666666" stop-color="#7d9e29"/><stop offset="1" stop-color="#546f24"/></radialGradient><radialGradient id="lumei-front-nearArm-0" gradientUnits="userSpaceOnUse" cx="0" cy="0" r="1" fx="-0.3" fy="-0.45" gradientTransform="translate(3 30) scale(25 51)"><stop offset="0" stop-color="#ffe25b"/><stop offset="0.3333333333333333" stop-color="#ffd024"/><stop offset="0.6666666666666666" stop-color="#f4b714"/><stop offset="1" stop-color="#d98c07"/></radialGradient><radialGradient id="lumei-front-nearArm-2" gradientUnits="userSpaceOnUse" cx="0" cy="0" r="1" fx="-0.3" fy="-0.45" gradientTransform="translate(1 6) scale(26 25)"><stop offset="0" stop-color="#ffdedc"/><stop offset="0.3333333333333333" stop-color="#f3bdc8"/><stop offset="0.6666666666666666" stop-color="#e5a1b5"/><stop offset="1" stop-color="#c97f98"/></radialGradient></defs><g id="farLeg" data-pivot="-32,-17" transform="translate(-32 -17) scale(-1 1)"><path d="M-17,-16 C-23,-8 -25,7 -18,13 C-11,20 15,19 23,11 C28,4 22,-10 14,-16Z" fill="url(#lumei-front-farLeg-0)" stroke="none" stroke-width="1.2" stroke-linecap="round" stroke-linejoin="round"/><path d="M-7,12 Q-7,15 -5,16 M2,12 Q3,15 4,16" fill="none" stroke="#c7912845" stroke-width="1" stroke-linecap="round" stroke-linejoin="round"/></g>
<g id="nearLeg" data-pivot="32,-17" transform="translate(32 -17) scale(1 1)"><path d="M-17,-16 C-23,-8 -25,7 -18,13 C-11,20 15,19 23,11 C28,4 22,-10 14,-16Z" fill="url(#lumei-front-nearLeg-0)" stroke="none" stroke-width="1.2" stroke-linecap="round" stroke-linejoin="round"/><path d="M-7,12 Q-7,15 -5,16 M2,12 Q3,15 4,16" fill="none" stroke="#c7912845" stroke-width="1" stroke-linecap="round" stroke-linejoin="round"/></g>
<g id="body" data-pivot="0,-76" transform="translate(0 -76) scale(1 1)"><path d="M-35,-62 C-53,-48 -65,-21 -65,7 C-70,32 -52,47 -19,48 C15,51 59,45 66,24 C72,8 59,-41 36,-61Z" fill="url(#lumei-front-body-0)" stroke="none" stroke-width="1.2" stroke-linecap="round" stroke-linejoin="round"/></g>
<g id="clothes" data-pivot="0,-40" transform="translate(0 -40) scale(1 1)"><path d="M-40,-70 Q0,-62 40,-70 C55,-55 62,-34 61,-10 C68,9 55,25 39,24 L16,24 Q4,20 0,11 Q-4,21 -18,24 L-41,24 C-59,23 -67,9 -61,-10 C-63,-32 -55,-55 -40,-70Z" fill="url(#lumei-front-clothes-0)" stroke="none" stroke-width="1.2" stroke-linecap="round" stroke-linejoin="round"/><path d="M-53,-13 Q0,-6 53,-13" fill="none" stroke="#d493a78a" stroke-width="1" stroke-linecap="round" stroke-linejoin="round"/><path d="M-46,-16 L-47,-8 M-33,-14 L-35,-6 M34,-14 L35,-6 M47,-16 L47,-8" fill="none" stroke="#ffebe780" stroke-width="1.4" stroke-linecap="round" stroke-linejoin="round"/><path d="M-55,17 Q-52,24 -47,21 Q-42,28 -37,24 Q-31,29 -27,25 Q-20,29 -14,24" fill="none" stroke="#fff0e8" stroke-width="3.3" stroke-linecap="round" stroke-linejoin="round"/><path d="M14,24 Q20,29 27,25 Q31,29 37,24 Q42,28 47,21 Q52,24 55,17" fill="none" stroke="#fff0e8" stroke-width="3.3" stroke-linecap="round" stroke-linejoin="round"/></g>
<g id="farArm" data-pivot="-54,-111" transform="translate(-54 -111) scale(-1 1)"><path d="M-10,-10 C-24,-4 -21,14 -16,34 C-12,52 -10,64 0,71 Q5,78 11,73 Q18,78 22,70 Q29,68 26,59 C26,48 21,39 21,23 L19,4 C18,-8 5,-14 -10,-10Z" fill="url(#lumei-front-farArm-0)" stroke="none" stroke-width="1.2" stroke-linecap="round" stroke-linejoin="round"/><path d="M6,61 Q7,67 10,68 M14,58 Q17,64 18,66" fill="none" stroke="#bf801348" stroke-width="1.2" stroke-linecap="round" stroke-linejoin="round"/><path d="M-15,-9 C-29,-3 -25,15 -16,22 Q-1,29 22,18 C27,6 22,-9 9,-12Z" fill="url(#lumei-front-farArm-2)" stroke="none" stroke-width="1.2" stroke-linecap="round" stroke-linejoin="round"/><path d="M-15,20 Q-12,24 -9,21 Q-5,27 -1,23 Q5,28 9,22 Q16,24 21,18" fill="none" stroke="#fff2eb" stroke-width="3" stroke-linecap="round" stroke-linejoin="round"/><path d="M-15,-1 Q-19,6 -14,13 M14,-4 Q18,4 15,11" fill="none" stroke="#fff0e966" stroke-width="1.5" stroke-linecap="round" stroke-linejoin="round"/></g>
<g id="collar" data-pivot="0,-109" transform="translate(0 -109) scale(1 1)"><path d="M-40,-5 Q-19,2 -2,-5 Q-6,19 -23,16 Q-37,12 -40,-5Z M2,-5 Q21,2 40,-5 Q37,12 23,16 Q7,20 2,-5Z" fill="url(#lumei-front-collar-0)" stroke="none" stroke-width="1.2" stroke-linecap="round" stroke-linejoin="round"/><path d="M-1,5 Q-13,0 -13,8 Q-14,15 -1,10 Q13,17 13,9 Q13,2 2,5Z" fill="#e7a8b9" stroke="none" stroke-width="1.2" stroke-linecap="round" stroke-linejoin="round"/><path d="M-3,8a3,3 0 1,0 6,0a3,3 0 1,0 -6,0" fill="#f8d4d6" stroke="none" stroke-width="1.2" stroke-linecap="round" stroke-linejoin="round"/></g>
<g id="bonnetBack" data-pivot="0,-167" transform="translate(0 -167) scale(1 1)"><path d="M-69,-34 C-95,-87 -40,-107 0,-101 C42,-106 81,-83 82,-47 L89,-13 Q98,0 87,10 L78,25 Q59,8 57,-24Z" fill="url(#lumei-front-bonnetBack-0)" stroke="none" stroke-width="1.2" stroke-linecap="round" stroke-linejoin="round"/></g>
<g id="neckShadow" data-pivot="0,-103" transform="translate(0 -103) scale(1 1)"><path d="M-51,0a51,11 0 1,0 102,0a51,11 0 1,0 -102,0" fill="url(#lumei-front-neckShadow-0)" stroke="none" stroke-width="0" stroke-linecap="round" stroke-linejoin="round"/></g>
<g id="head" data-pivot="0,-167" transform="translate(0 -167) scale(1 1)"><path d="M-4,-82 C-35,-82 -55,-68 -62,-43 C-69,-21 -85,-1 -84,24 C-83,54 -48,67 -2,67 C44,68 80,54 84,27 C87,4 75,-18 67,-42 C59,-68 33,-82 -4,-82Z" fill="url(#lumei-front-head-0)" stroke="none" stroke-width="1.2" stroke-linecap="round" stroke-linejoin="round"/></g>
<g id="muzzle" data-pivot="0,-167" transform="translate(0 -167) scale(1 1)"><path d="M-4,-82 C-35,-82 -55,-68 -62,-43 C-69,-21 -85,-1 -84,24 C-83,54 -48,67 -2,67 C44,68 80,54 84,27 C87,4 75,-18 67,-42 C59,-68 33,-82 -4,-82Z" fill="url(#lumei-front-muzzle-0)" stroke="none" stroke-width="1.2" stroke-linecap="round" stroke-linejoin="round"/></g>
<g id="eyes" data-pivot="0,-204" transform="translate(0 -204) scale(1 1)"><path d="M-44,0a15,19 0 1,0 30,0a15,19 0 1,0 -30,0" fill="url(#lumei-front-eyes-0)" stroke="none" stroke-width="0" stroke-linecap="round" stroke-linejoin="round"/><path d="M-42.5,0a13.5,17 0 1,0 27,0a13.5,17 0 1,0 -27,0" fill="url(#lumei-front-eyes-1)" stroke="none" stroke-width="0" stroke-linecap="round" stroke-linejoin="round"/><path d="M-35.3,1a7.3,10 0 1,0 14.6,0a7.3,10 0 1,0 -14.6,0" fill="url(#lumei-front-eyes-2)" stroke="none" stroke-width="0" stroke-linecap="round" stroke-linejoin="round"/><path d="M-31.8,0a3.8,6.4 0 1,0 7.6,0a3.8,6.4 0 1,0 -7.6,0" fill="#101e26" stroke="none" stroke-width="1.2" stroke-linecap="round" stroke-linejoin="round"/><path d="M-32.1,-4a2.1,2.6 0 1,0 4.2,0a2.1,2.6 0 1,0 -4.2,0" fill="#ffffff" stroke="none" stroke-width="1.2" stroke-linecap="round" stroke-linejoin="round"/><path d="M-26.4,4a0.9,1.2 0 1,0 1.8,0a0.9,1.2 0 1,0 -1.8,0" fill="#d4f3ffb0" stroke="none" stroke-width="1.2" stroke-linecap="round" stroke-linejoin="round"/><path d="M14,0a15,19 0 1,0 30,0a15,19 0 1,0 -30,0" fill="url(#lumei-front-eyes-6)" stroke="none" stroke-width="0" stroke-linecap="round" stroke-linejoin="round"/><path d="M15.5,0a13.5,17 0 1,0 27,0a13.5,17 0 1,0 -27,0" fill="url(#lumei-front-eyes-7)" stroke="none" stroke-width="0" stroke-linecap="round" stroke-linejoin="round"/><path d="M22.7,1a7.3,10 0 1,0 14.6,0a7.3,10 0 1,0 -14.6,0" fill="url(#lumei-front-eyes-8)" stroke="none" stroke-width="0" stroke-linecap="round" stroke-linejoin="round"/><path d="M26.2,0a3.8,6.4 0 1,0 7.6,0a3.8,6.4 0 1,0 -7.6,0" fill="#101e26" stroke="none" stroke-width="1.2" stroke-linecap="round" stroke-linejoin="round"/><path d="M25.9,-4a2.1,2.6 0 1,0 4.2,0a2.1,2.6 0 1,0 -4.2,0" fill="#ffffff" stroke="none" stroke-width="1.2" stroke-linecap="round" stroke-linejoin="round"/><path d="M31.6,4a0.9,1.2 0 1,0 1.8,0a0.9,1.2 0 1,0 -1.8,0" fill="#d4f3ffb0" stroke="none" stroke-width="1.2" stroke-linecap="round" stroke-linejoin="round"/></g>
<g id="mouth" data-pivot="1,-125" transform="translate(1 -125) scale(1 1)"><path d="M-17,-6 Q0,-1 18,-6 C20,4 11,13 0,13 C-11,13 -19,5 -17,-6Z" fill="#713515" stroke="none" stroke-width="1.2" stroke-linecap="round" stroke-linejoin="round"/><path d="M-11,-4 Q0,-2 11,-4 L10,5 Q0,10 -10,5Z" fill="url(#lumei-front-mouth-1)" stroke="none" stroke-width="1.2" stroke-linecap="round" stroke-linejoin="round"/><path d="M-9,10 Q0,6 9,10 Q0,14 -9,10Z" fill="#dc8b69" stroke="none" stroke-width="1.2" stroke-linecap="round" stroke-linejoin="round"/></g>
<g id="bonnet" data-pivot="0,-167" transform="translate(0 -167) scale(1 1)"><path d="M-76,-48 C-70,-81 -42,-101 0,-101 C44,-101 72,-79 78,-44 L67,-41 Q65,-54 55,-53 Q45,-41 35,-59 Q25,-65 18,-54 Q8,-43 -2,-61 Q-12,-69 -21,-56 Q-31,-45 -41,-63 Q-53,-69 -59,-53 Q-63,-39 -76,-48Z" fill="url(#lumei-front-bonnet-0)" stroke="none" stroke-width="1.2" stroke-linecap="round" stroke-linejoin="round"/><path d="M-65,-67 Q-62,-60 -62,-51 M-42,-79 Q-38,-66 -35,-59 M-16,-85 Q-12,-72 -9,-62 M12,-85 Q18,-75 19,-60 M42,-78 Q49,-68 51,-57 M64,-64 Q69,-56 69,-48" fill="none" stroke="#c9c1b647" stroke-width="2" stroke-linecap="round" stroke-linejoin="round"/><path d="M72,-47 Q85,-48 86,-33 Q81,-24 90,-14 Q98,-4 88,4 L78,11 Q67,0 75,-10 Q65,-19 73,-29 Q63,-39 72,-47Z" fill="url(#lumei-front-bonnet-2)" stroke="none" stroke-width="1.2" stroke-linecap="round" stroke-linejoin="round"/></g>
<g id="leftEar" data-pivot="-64,-205" transform="translate(-64 -205) scale(-1 1)"><path d="M-12,9 C-21,-1 -16,-22 -3,-23 C11,-24 20,-8 12,6 Q4,13 -12,9Z" fill="url(#lumei-front-leftEar-0)" stroke="none" stroke-width="1.2" stroke-linecap="round" stroke-linejoin="round"/><path d="M-7,3 C-13,-4 -9,-16 -2,-16 C6,-16 12,-6 6,1 Q0,6 -7,3Z" fill="url(#lumei-front-leftEar-1)" stroke="none" stroke-width="1.2" stroke-linecap="round" stroke-linejoin="round"/></g>
<g id="rightEar" data-pivot="64,-205" transform="translate(64 -205) scale(1 1)"><path d="M-12,9 C-21,-1 -16,-22 -3,-23 C11,-24 20,-8 12,6 Q4,13 -12,9Z" fill="url(#lumei-front-rightEar-0)" stroke="none" stroke-width="1.2" stroke-linecap="round" stroke-linejoin="round"/><path d="M-7,3 C-13,-4 -9,-16 -2,-16 C6,-16 12,-6 6,1 Q0,6 -7,3Z" fill="url(#lumei-front-rightEar-1)" stroke="none" stroke-width="1.2" stroke-linecap="round" stroke-linejoin="round"/></g>
<g id="orange" data-pivot="0,-270" transform="translate(0 -270) scale(1 1)"><path d="M-29,17a29,8 0 1,0 58,0a29,8 0 1,0 -58,0" fill="url(#lumei-front-orange-0)" stroke="none" stroke-width="0" stroke-linecap="round" stroke-linejoin="round"/><path d="M-22,-2 C-23,-17 -12,-26 0,-25 C14,-26 24,-16 23,-1 C26,12 16,18 1,18 C-14,19 -25,11 -22,-2Z" fill="url(#lumei-front-orange-1)" stroke="none" stroke-width="1.2" stroke-linecap="round" stroke-linejoin="round"/><path d="M-32,-7 Q0,-12 33,-7 L32,-1 Q0,6 -32,-1Z" fill="url(#lumei-front-orange-2)" stroke="none" stroke-width="1.2" stroke-linecap="round" stroke-linejoin="round"/><path d="M-32,-7a32,5 0 1,0 64,0a32,5 0 1,0 -64,0" fill="url(#lumei-front-orange-3)" stroke="none" stroke-width="1.2" stroke-linecap="round" stroke-linejoin="round"/><path d="M-2,-24 Q-4,-33 1,-36 Q5,-38 6,-32 L4,-24Z" fill="url(#lumei-front-orange-4)" stroke="none" stroke-width="1.2" stroke-linecap="round" stroke-linejoin="round"/><path d="M2,-30 C-14,-32 -24,-41 -19,-47 C-11,-53 0,-42 2,-30Z M3,-33 C4,-47 16,-54 22,-48 C28,-41 13,-33 3,-33Z" fill="url(#lumei-front-orange-5)" stroke="none" stroke-width="1.2" stroke-linecap="round" stroke-linejoin="round"/></g>
<g id="nearArm" data-pivot="54,-109" transform="translate(54 -109) scale(1 1)"><path d="M-10,-10 C-24,-4 -21,14 -16,34 C-12,52 -10,64 0,71 Q5,78 11,73 Q18,78 22,70 Q29,68 26,59 C26,48 21,39 21,23 L19,4 C18,-8 5,-14 -10,-10Z" fill="url(#lumei-front-nearArm-0)" stroke="none" stroke-width="1.2" stroke-linecap="round" stroke-linejoin="round"/><path d="M6,61 Q7,67 10,68 M14,58 Q17,64 18,66" fill="none" stroke="#bf801348" stroke-width="1.2" stroke-linecap="round" stroke-linejoin="round"/><path d="M-15,-9 C-29,-3 -25,15 -16,22 Q-1,29 22,18 C27,6 22,-9 9,-12Z" fill="url(#lumei-front-nearArm-2)" stroke="none" stroke-width="1.2" stroke-linecap="round" stroke-linejoin="round"/><path d="M-15,20 Q-12,24 -9,21 Q-5,27 -1,23 Q5,28 9,22 Q16,24 21,18" fill="none" stroke="#fff2eb" stroke-width="3" stroke-linecap="round" stroke-linejoin="round"/><path d="M-15,-1 Q-19,6 -14,13 M14,-4 Q18,4 15,11" fill="none" stroke="#fff0e966" stroke-width="1.5" stroke-linecap="round" stroke-linejoin="round"/></g></svg>